<svg width="250" height="153" viewBox="0 0 250 153" fill="none" xmlns="http://www.w3.org/2000/svg">
<path d="M238.978 27.5V41.6738H223.614V81.582H206.945V41.6738H191.581V27.5H238.978Z" fill="#F7F3E8" stroke="black" stroke-width="3"/>
<path d="M172.329 27.5C176.302 27.5 179.852 28.2237 182.936 29.7207C186.027 31.2212 188.461 33.4008 190.197 36.251C191.945 39.1219 192.785 42.5131 192.785 46.3594C192.785 50.2424 191.918 53.6266 190.099 56.4297L190.098 56.4287C188.71 58.5877 186.884 60.3246 184.646 61.6445L194.298 79.3643L195.506 81.582H177.015L176.591 80.7861L168.046 64.7207H165.648V81.582H148.78V27.5H172.329ZM165.648 50.9453H169.037C170.546 50.9453 171.755 50.7601 172.699 50.4336C173.606 50.1092 174.221 49.6306 174.633 49.0283L174.638 49.0215L174.644 49.0137C175.049 48.4377 175.318 47.5941 175.318 46.3594C175.318 45.1057 175.048 44.241 174.636 43.6455L174.619 43.6201C174.199 42.9842 173.58 42.4889 172.679 42.1543L172.667 42.1494L172.655 42.1445C171.728 41.7819 170.536 41.5742 169.037 41.5742H165.648V50.9453Z" fill="#F7F3E8" stroke="black" stroke-width="3"/>
<path d="M123.392 27.5C128.364 27.5 132.866 29.2188 136.853 32.5859C140.848 35.9342 143.94 40.8174 146.198 47.1133H146.199C148.474 53.4274 149.585 61.1223 149.585 70.1543C149.585 79.187 148.473 86.8943 146.199 93.2334V93.2354C143.94 99.5074 140.847 104.388 136.855 107.761L136.851 107.765C132.863 111.106 128.361 112.81 123.392 112.81C118.388 112.809 113.868 111.092 109.879 107.722L109.872 107.716C105.902 104.319 102.819 99.4277 100.561 93.1572L100.559 93.1523C98.3028 86.8152 97.1992 79.135 97.1992 70.1543C97.1992 61.123 98.3027 53.4292 100.56 47.1162V47.1152C102.817 40.8201 105.901 35.9365 109.879 32.5879L110.255 32.2764C114.152 29.1116 118.545 27.5001 123.392 27.5ZM123.392 49.4346C121.543 49.4347 120.016 50.1101 118.724 51.5273L118.722 51.5293C117.401 52.97 116.304 55.2071 115.527 58.3838C114.771 61.5169 114.38 65.4313 114.38 70.1543C114.38 74.8758 114.771 78.8042 115.527 81.9648C116.301 85.1015 117.393 87.3403 118.716 88.8125C120.006 90.2057 121.535 90.8749 123.392 90.875C125.248 90.875 126.766 90.2064 128.038 88.8184C129.377 87.349 130.472 85.1106 131.23 81.9688L131.231 81.9648H131.232C132.005 78.8058 132.404 74.8775 132.404 70.1543C132.404 65.4309 132.004 61.5177 131.232 58.3867L131.23 58.377C130.471 55.2048 129.375 52.9728 128.043 51.5352L128.037 51.5283L128.03 51.5215C126.756 50.1093 125.24 49.4346 123.392 49.4346Z" fill="#E6EDE2" stroke="black" stroke-width="3"/>
<path d="M80.1421 27.5C84.1328 27.5 87.6981 28.2885 90.7925 29.917C93.8783 31.5411 96.3001 33.8404 98.0249 36.7998C99.7578 39.7731 100.598 43.2101 100.598 47.0586C100.598 50.9422 99.7303 54.3865 97.938 57.334L97.939 57.335C96.1713 60.2689 93.6808 62.5241 90.5093 64.0918L90.5083 64.0908C87.3547 65.6578 83.7189 66.417 79.6431 66.417H73.4614V81.582H56.5933V27.5H80.1421ZM73.4614 52.6416H76.8501C78.3087 52.6416 79.4562 52.3879 80.3481 51.9492C81.2636 51.4906 81.9264 50.8669 82.3853 50.0732L82.3901 50.0664L82.394 50.0586C82.8665 49.2629 83.1313 48.2816 83.1313 47.0586C83.1313 45.8136 82.8643 44.8504 82.4048 44.1006L82.3979 44.0889L82.3901 44.0762C81.9371 43.3049 81.2833 42.7073 80.3755 42.2793L80.3521 42.2676C79.4596 41.8279 78.3106 41.5743 76.8501 41.5742H73.4614V52.6416Z" fill="#F7F3E8" stroke="black" stroke-width="3"/>
<path d="M33.9492 27.5C38.2372 27.5 42.0266 28.2177 45.2744 29.707C48.5103 31.1909 51.0591 33.3107 52.8594 36.0801C54.6846 38.8455 55.5846 42.0565 55.6025 45.6543L55.6104 47.1611H39.4482L39.3379 45.7812C39.2318 44.4548 38.7594 43.5548 38.001 42.9209L37.9922 42.9141C37.2816 42.3111 36.0276 41.874 33.9492 41.874C32.6255 41.874 31.652 42.0376 30.9678 42.2988L30.96 42.3018L30.9531 42.3037C30.242 42.5671 29.8522 42.8793 29.6406 43.1641C29.4001 43.4879 29.2727 43.8498 29.2627 44.2979V44.3223L29.2617 44.3457C29.2418 44.7142 29.3045 44.9995 29.417 45.2363C29.5509 45.4681 29.7859 45.7377 30.1914 46.0254C30.6213 46.3136 31.217 46.609 32.0107 46.8936C32.808 47.1794 33.7841 47.4442 34.9492 47.6836L34.9619 47.6865L39.1475 48.584H39.1484C42.0624 49.2011 44.6051 50.0245 46.7539 51.0723C48.888 52.1129 50.6844 53.3633 52.1084 54.8408L52.3711 55.1162C53.6612 56.5072 54.6301 58.075 55.2627 59.8145H55.2617C55.9415 61.6379 56.2829 63.6049 56.3008 65.7021V65.7227C56.2828 69.336 55.3747 72.4953 53.502 75.1172C51.645 77.7168 49.0155 79.6498 45.6982 80.9521L45.6992 80.9531C42.4029 82.2538 38.5056 82.8789 34.0488 82.8789C29.4648 82.8789 25.3948 82.2012 21.8721 80.8027L21.8701 80.8018C18.3203 79.3854 15.5092 77.181 13.498 74.1826L13.4922 74.1738C11.477 71.1233 10.5174 67.3062 10.5 62.8271L10.4941 61.3213H26.5918L26.667 62.7422C26.7393 64.1006 27.073 65.1428 27.5957 65.9395C28.1198 66.7381 28.8621 67.3615 29.8789 67.8037C30.9296 68.2535 32.2396 68.5049 33.8496 68.5049C35.2172 68.5049 36.2686 68.3343 37.0498 68.0479C37.8605 67.7505 38.3594 67.3806 38.6611 67.001C38.9656 66.6179 39.1169 66.2041 39.1318 65.7119C39.1162 65.2866 38.9827 64.95 38.7217 64.6455L38.707 64.6289L38.6924 64.6104C38.4315 64.2866 37.8901 63.876 36.8877 63.457L36.8789 63.4541L36.8701 63.4502C35.8808 63.022 34.48 62.5971 32.6299 62.1914V62.1904L27.5469 61.0957L27.5449 61.0947C22.8526 60.0769 19.0281 58.3515 16.1729 55.8418L16.165 55.835C13.2009 53.1937 11.7788 49.6057 11.7969 45.2559C11.7814 41.7304 12.7286 38.5842 14.6729 35.8809L14.6738 35.8799C16.6123 33.1917 19.2736 31.1291 22.5967 29.6719L22.5996 29.6699C25.9464 28.2102 29.7399 27.5 33.9492 27.5Z" fill="#F7F3E8" stroke="black" stroke-width="3"/>
<path d="M169.181 90.246L157.651 121.13C157.205 122.324 157.148 123.483 157.46 124.647C157.783 125.816 158.438 126.916 159.488 127.95L159.692 128.143C160.729 129.096 162.035 129.882 163.642 130.482C165.379 131.13 166.97 131.384 168.432 131.292C169.906 131.2 171.124 130.798 172.135 130.125C173.134 129.45 173.85 128.539 174.296 127.344L185.826 96.4603L205.127 103.666L193.178 135.669C191.705 139.617 189.198 142.634 185.671 144.65L185.671 144.651C182.215 146.632 178.114 147.575 173.433 147.551L173.428 147.551C168.748 147.511 163.739 146.474 158.414 144.486C153.05 142.483 148.566 139.977 145.004 136.939L145 136.936C141.449 133.887 138.97 130.487 137.657 126.726L137.654 126.716C136.353 122.897 136.461 118.986 137.932 115.044L149.88 83.0404L169.181 90.246Z" fill="#F7F3E8" stroke="black" stroke-width="3"/>
<path d="M97.6133 80.5V112.773H103.5V126.531H97.6133V134.5H81.3438V126.531H56.5V113.836L56.7344 113.468L77.2881 81.1943L77.7305 80.5H97.6133ZM74.1396 112.773H81.6426V100.895L74.1396 112.773Z" fill="#F7F3E8" stroke="black" stroke-width="3"/>
</svg>
